<svg width="12" height="12" viewBox="0 0 12 12" fill="none" xmlns="http://www.w3.org/2000/svg">
<path d="M10.9866 9.84375C10.3439 8.7158 9.34034 7.83692 8.13749 7.3486C8.73566 6.89997 9.1775 6.27451 9.40045 5.56082C9.62339 4.84712 9.61612 4.08137 9.37968 3.37203C9.14323 2.6627 8.68959 2.04574 8.08302 1.60855C7.47645 1.17135 6.7477 0.936096 5.99999 0.936096C5.25228 0.936096 4.52353 1.17135 3.91696 1.60855C3.31039 2.04574 2.85675 2.6627 2.62031 3.37203C2.38386 4.08137 2.37659 4.84712 2.59954 5.56082C2.82248 6.27451 3.26433 6.89997 3.86249 7.3486C2.65964 7.83692 1.6561 8.7158 1.01343 9.84375C0.973605 9.90779 0.947064 9.97917 0.935381 10.0537C0.923698 10.1282 0.927113 10.2042 0.945422 10.2774C0.963731 10.3505 0.996561 10.4193 1.04196 10.4795C1.08736 10.5397 1.1444 10.5901 1.20969 10.6279C1.27498 10.6656 1.34719 10.6898 1.42203 10.6991C1.49686 10.7083 1.5728 10.7024 1.64531 10.6818C1.71783 10.6611 1.78545 10.626 1.84415 10.5787C1.90285 10.5314 1.95144 10.4727 1.98702 10.4063C2.8364 8.93813 4.3364 8.0625 5.99999 8.0625C7.66358 8.0625 9.16358 8.9386 10.013 10.4063C10.0901 10.5303 10.2124 10.6194 10.354 10.6549C10.4957 10.6903 10.6456 10.6693 10.772 10.5962C10.8985 10.5232 10.9915 10.4038 11.0316 10.2634C11.0716 10.123 11.0555 9.97249 10.9866 9.84375ZM3.56249 4.5C3.56249 4.01791 3.70545 3.54664 3.97328 3.1458C4.24112 2.74496 4.6218 2.43253 5.0672 2.24805C5.51259 2.06356 6.00269 2.01529 6.47552 2.10934C6.94835 2.20339 7.38267 2.43554 7.72356 2.77643C8.06445 3.11732 8.2966 3.55164 8.39066 4.02447C8.48471 4.4973 8.43644 4.9874 8.25195 5.43279C8.06746 5.87819 7.75504 6.25887 7.35419 6.52671C6.95335 6.79455 6.48208 6.9375 5.99999 6.9375C5.35375 6.93676 4.7342 6.67971 4.27724 6.22275C3.82028 5.76579 3.56323 5.14624 3.56249 4.5Z" fill="black"/>
<circle cx="6" cy="4" r="3" fill="black"/>
</svg>
